<svg width="65" height="65" viewBox="0 0 65 65" fill="none" xmlns="http://www.w3.org/2000/svg">
<path d="M65 32.5C65 50.4501 50.4501 65 32.5 65C14.5499 65 0 50.4501 0 32.5C0 14.5499 14.5499 0 32.5 0C50.4501 0 65 14.5499 65 32.5Z" fill="white"/>
<path fill-rule="evenodd" clip-rule="evenodd" d="M50.5529 32.6188C49.6 32.6188 48.6471 32.9321 47.9324 33.5587C47.8748 33.502 47.7525 33.3768 47.5967 33.2173L47.5955 33.2161L47.5953 33.2159L47.5953 33.2158C47.1055 32.7144 46.2864 31.8759 46.1059 31.7572C46.7412 30.8956 47.1382 29.8773 47.1382 28.7807C47.1382 27.8407 46.9 27.0574 46.3441 26.3525C45.8676 25.7258 45.1529 25.1775 44.2794 24.6292C44.9147 24.2376 45.3912 23.846 45.7882 23.2977C46.1853 22.671 46.4235 22.0444 46.4235 21.2611V21.0261C46.7412 20.9478 49.2029 20.1645 49.3618 20.0862C49.6794 20.3995 49.9971 20.5561 50.4735 20.5561C51.2676 20.5561 51.9824 19.8512 51.9824 19.0679C51.9824 18.2846 51.2676 17.5796 50.4735 17.5796C49.6 17.5796 48.9647 18.2846 48.9647 19.0679C48.9647 19.0679 48.9647 19.1462 49.0441 19.3029C48.8853 19.342 48.2897 19.5183 47.6941 19.6945C47.0985 19.8708 46.5029 20.047 46.3441 20.0862C46.2647 19.6945 46.1059 19.3812 45.8676 19.0679C45.4706 18.3629 44.8353 17.8146 44.1206 17.423C43.4059 17.0313 42.6118 16.8747 41.8176 16.8747C41.7568 16.6945 41.0892 15.4097 40.7094 14.6786C40.5937 14.4559 40.5047 14.2846 40.4676 14.2115C40.9441 13.8982 41.2618 13.3499 41.2618 12.8016C41.2618 11.7833 40.4676 11 39.4353 11C38.4824 11 37.6088 11.7833 37.6088 12.8016C37.6088 12.8799 37.6287 12.9582 37.6485 13.0366C37.6684 13.1149 37.6882 13.1932 37.6882 13.2715C37.3706 13.4282 34.1147 14.9948 33.8765 15.0731C33.2412 14.2898 32.2882 13.7415 31.2559 13.7415C29.4294 13.7415 28 15.1514 28 16.953C28 18.7546 29.4294 20.1645 31.2559 20.1645C32.3676 20.1645 33.4 19.5379 34.0353 18.5979C34.1068 18.6214 34.3712 18.7154 34.7149 18.8376L34.715 18.8376L34.715 18.8376C35.5171 19.1227 36.7512 19.5614 36.9735 19.6162C36.7353 20.0862 36.6559 20.5561 36.6559 21.1044C36.6559 21.8094 36.8941 22.5144 37.2912 23.141C37.6088 23.6893 38.1647 24.0809 38.8 24.4726C37.8471 25.0209 37.1324 25.5692 36.6559 26.2742C36.1794 26.9791 35.8618 27.8407 35.8618 28.7807C35.8618 29.564 36.1 30.2689 36.4176 30.9739C36.1 31.1305 33.6382 32.5405 33.4 32.6971C32.9235 31.9138 32.05 31.3655 31.0971 31.3655C29.5882 31.3655 28.3971 32.5405 28.3971 34.0287C28.3971 35.517 29.5882 36.6919 31.0971 36.6919C31.6529 36.6919 32.2088 36.4569 32.6853 36.1436C32.9235 36.3003 34.3529 37.3969 34.5118 37.5535C34.4324 37.7102 34.4324 37.9452 34.4324 38.1018C34.4324 39.1984 35.3853 40.1384 36.4971 40.1384C37.6882 40.1384 38.5618 39.1984 38.5618 38.1018C38.5618 37.9159 38.512 37.779 38.4519 37.6135L38.4519 37.6134C38.4361 37.5698 38.4195 37.5242 38.4029 37.4752C38.5026 37.3769 38.79 37.2168 39.0491 37.0725L39.0492 37.0725L39.0492 37.0725L39.0493 37.0724C39.203 36.9869 39.3466 36.9069 39.4353 36.8486C39.6735 37.0052 39.9118 37.1619 40.2294 37.1619C40.7059 37.1619 41.1029 36.9269 41.3412 36.5352C41.4517 36.5352 42.4858 36.6196 43.5942 36.71L43.5944 36.71L43.5945 36.71C44.8744 36.8144 46.2533 36.9269 46.4235 36.9269C46.5029 39.1984 48.4088 41 50.7118 41C53.0941 41 55 39.1201 55 36.7702C54.8412 34.4987 52.9353 32.6188 50.5529 32.6188ZM50.3147 18.2846C50.7912 18.2846 51.1882 18.6762 51.1882 19.1462C51.1882 19.6162 50.7912 20.0078 50.3147 20.0078C49.8382 20.0078 49.4412 19.6162 49.4412 19.1462C49.4412 18.6762 49.8382 18.2846 50.3147 18.2846ZM47.7735 36.8486C47.7735 38.3368 49.0441 39.5901 50.5529 39.5901C52.0618 39.5901 53.3324 38.4151 53.3324 36.8486C53.3324 35.3603 52.0618 34.107 50.5529 34.107C49.0441 34.107 47.7735 35.3603 47.7735 36.8486ZM36.4176 39.3551C35.7824 39.3551 35.2265 38.8068 35.2265 38.1802C35.2265 37.5535 35.7824 37.0052 36.4176 37.0052C37.0529 37.0052 37.6088 37.5535 37.6088 38.1802C37.6088 38.8851 37.0529 39.3551 36.4176 39.3551ZM32.6062 34.1071C32.6062 33.2455 31.8915 32.5405 31.0179 32.5405C30.1444 32.5405 29.4297 33.2455 29.4297 34.1071C29.4297 34.9687 30.1444 35.6737 31.0179 35.6737C31.8915 35.6737 32.6062 34.9687 32.6062 34.1071ZM39.2772 11.8618C39.833 11.8618 40.2301 12.2535 40.2301 12.8018C40.2301 13.3501 39.833 13.7417 39.2772 13.7417C38.8007 13.7417 38.3242 13.3501 38.3242 12.8018C38.3242 12.3318 38.8007 11.8618 39.2772 11.8618ZM38.2094 36.657C38.464 36.4836 38.7677 36.2767 38.8785 36.2221C38.8785 36.196 38.8696 36.1612 38.8608 36.1263C38.8432 36.0567 38.8255 35.9871 38.8785 35.9871C38.8785 35.4388 39.2755 34.9688 39.752 34.8122C39.752 34.7417 39.768 34.5605 39.7857 34.361L39.7857 34.361C39.8073 34.1167 39.8314 33.8449 39.8314 33.7155C38.7196 33.4806 37.8461 33.0106 37.2108 32.3056C37.2108 32.3056 36.9726 31.914 36.8138 31.7573C36.4961 31.914 33.8755 33.4022 33.6373 33.5589C33.6373 33.6883 33.6614 33.7939 33.683 33.8888C33.7007 33.9664 33.7167 34.0368 33.7167 34.1072C33.7167 34.6555 33.5579 35.1255 33.2402 35.5954C33.4785 35.7521 34.5902 36.6137 34.8285 36.8487C35.2255 36.4571 35.7814 36.1437 36.4167 36.1437C36.9726 36.1437 37.5285 36.4571 37.9255 36.8487C37.9975 36.8014 38.0983 36.7327 38.2085 36.6576L38.2087 36.6575L38.2091 36.6572L38.2094 36.657L38.2094 36.657ZM38.9581 26.5876C39.6728 25.8827 40.5464 25.5693 41.5787 25.5693C42.5317 25.5693 43.4052 25.8827 44.0405 26.5093C44.7552 27.1359 45.0728 27.9192 45.0728 28.7025C45.0728 29.5641 44.7552 30.2691 44.1199 30.8957C43.4846 31.5223 42.6111 31.8357 41.4993 31.8357C40.7846 31.8357 40.1493 31.679 39.5934 31.444C39.0375 31.209 38.6405 30.8174 38.4023 30.3474C38.0846 29.8774 37.9258 29.3291 37.9258 28.8592C37.9258 28.0759 38.2434 27.2926 38.9581 26.5876ZM41.5794 23.6893C42.0559 23.6893 42.4529 23.611 42.9294 23.376C43.3265 23.141 43.6441 22.8277 43.8824 22.3577C44.2 21.8877 44.2794 21.4961 44.2794 21.1044C44.2794 20.5561 44.0412 20.0078 43.5647 19.5379C43.0882 19.0679 42.3735 18.8329 41.5 18.8329C40.7059 18.8329 40.0706 19.0679 39.5147 19.5379C38.9588 20.0078 38.7206 20.5561 38.7206 21.1828C38.7206 21.8094 39.0382 22.3577 39.5941 22.906C40.15 23.4543 40.7853 23.6893 41.5794 23.6893ZM41.3417 35.7519C41.2622 35.3603 41.024 35.047 40.627 34.812C40.627 34.577 40.7064 34.0287 40.7858 33.7937C41.024 33.7937 41.5005 33.872 41.5005 33.872C43.2475 33.872 44.5975 33.3237 45.6299 32.3838C45.749 32.5012 46.126 32.8927 46.5031 33.2842L46.5034 33.2846L46.5038 33.285C46.8809 33.6765 47.2579 34.0679 47.377 34.1854C46.9005 34.7337 46.5828 35.4386 46.424 36.1436C46.2144 36.1436 44.8985 36.0345 43.6558 35.9314L43.6555 35.9314C42.5442 35.8392 41.4916 35.7519 41.3417 35.7519ZM34.3132 17.7379C34.3 17.7878 34.2864 17.8393 34.2728 17.893C34.4588 17.9848 35.3806 18.3184 36.1443 18.5949L36.1443 18.5949L36.1443 18.5949L36.1444 18.5949L36.1445 18.5949C36.6844 18.7904 37.1452 18.9572 37.211 18.9896C37.6875 18.2847 38.2434 17.8147 38.9581 17.423C39.5139 17.1097 40.0698 16.9531 40.6257 16.8747C40.545 16.6756 40.259 16.1325 39.9869 15.6156C39.7238 15.1157 39.4736 14.6404 39.4345 14.5249H39.1963C38.7992 14.5249 38.3228 14.2899 38.0051 13.9766C37.816 14.1009 35.7247 15.114 34.7119 15.6047L34.7118 15.6048L34.7117 15.6048C34.4489 15.7321 34.2588 15.8242 34.1934 15.8565C34.3522 16.2481 34.4316 16.6397 34.4316 17.0314C34.4316 17.2909 34.3771 17.4968 34.3132 17.7379L34.3132 17.7379ZM39.3555 35.9869C39.3555 35.5953 39.6731 35.2036 40.1496 35.2036C40.4672 35.2036 40.7055 35.3603 40.8643 35.6736V35.7519C40.8643 35.7911 40.8841 35.8302 40.904 35.8694C40.9239 35.9086 40.9437 35.9477 40.9437 35.9869C40.9437 36.3785 40.6261 36.7702 40.1496 36.7702C39.6731 36.7702 39.3555 36.4569 39.3555 35.9869ZM29.1912 17.0313C29.1912 18.1279 30.0647 18.9896 31.1765 18.9896C32.2882 18.9896 33.1618 18.1279 33.1618 17.0313C33.1618 15.9347 32.2882 15.0731 31.1765 15.0731C30.0647 15.0731 29.1912 15.9347 29.1912 17.0313Z" fill="black"/>
<path fill-rule="evenodd" clip-rule="evenodd" d="M33.5088 46.9272C33.5088 46.9272 26.4507 36.5267 26.3714 36.3692V24.7081C26.6093 24.7081 27.0059 24.6293 27.3231 24.3141C27.7196 23.9202 27.8782 23.3687 27.8782 22.7383C27.8782 21.3201 26.768 21.0049 26.4507 21.0049H21.6132C21.6132 21.0049 20.8995 20.9261 20.4236 21.3989C20.1064 21.714 19.9478 22.1868 19.9478 22.7383C19.9478 24.3929 20.7408 24.7081 21.7718 24.7081V36.3692C21.6925 36.448 14.3965 46.8484 14.3965 46.8484C14.3965 46.8484 14 47.5575 14 48.2666C14 48.4242 14 48.5818 14.0793 48.7393C14.2379 49.2909 14.5551 49.6848 15.1896 50H32.7951C32.7951 50 33.6674 49.6848 33.9053 48.8969C33.9846 48.7393 33.9846 48.503 33.9846 48.2666C34.0639 47.9514 33.826 47.4787 33.5088 46.9272ZM15.5061 49.0544C15.5061 49.0544 14.7131 48.6604 15.4268 47.5574C16.1405 46.6119 22.8814 36.8418 22.8814 36.8418V24.2353L24.4675 23.6837H21.3746C21.3746 23.6837 21.1367 23.6049 21.1367 22.817C21.1367 22.1706 21.5321 22.1789 21.8423 22.1854H21.8423C21.8724 22.1861 21.9017 22.1867 21.9297 22.1867H26.4501C26.4501 22.1867 26.9259 22.1079 26.9259 22.8958C26.9259 23.6837 26.6087 23.7625 26.0535 23.7625H25.4191V36.8418L32.6358 47.5574C32.6358 47.5574 33.4288 48.5817 32.5565 49.0544H15.5061ZM16.1406 48.1089L21.7712 40.3086H26.2122L31.4463 48.0301H19.5507L19.7886 47.6362L23.5159 42.042H22.0091L17.6474 48.1089H16.1406Z" fill="black"/>
</svg>
