<svg width="237" height="47" viewBox="0 0 237 47" fill="none" xmlns="http://www.w3.org/2000/svg">
<path d="M46.6428 23.2735C46.6428 36.1277 36.2021 46.547 23.3214 46.547C10.4407 46.547 0 36.1277 0 23.2735C0 10.4193 10.4407 0 23.3214 0C36.2021 0 46.6428 10.4193 46.6428 23.2735Z" fill="white"/>
<path fill-rule="evenodd" clip-rule="evenodd" d="M36.0887 23.2735C35.4077 23.2735 34.7268 23.5 34.2161 23.953C34.1749 23.9119 34.0871 23.821 33.9753 23.7051C33.6254 23.3427 33.0401 22.7364 32.9111 22.6506C33.365 22.0277 33.6487 21.2916 33.6487 20.4988C33.6487 19.8193 33.4785 19.253 33.0813 18.7434C32.7408 18.2904 32.2301 17.894 31.606 17.4976C32.0599 17.2145 32.4004 16.9313 32.6841 16.5349C32.9678 16.0819 33.138 15.6289 33.138 15.0626V14.8928C33.365 14.8361 35.124 14.2699 35.2375 14.2133C35.4645 14.4398 35.6915 14.553 36.0319 14.553C36.5994 14.553 37.11 14.0434 37.11 13.4771C37.11 12.9108 36.5994 12.4012 36.0319 12.4012C35.4077 12.4012 34.9538 12.9108 34.9538 13.4771C34.9538 13.4771 34.9538 13.5337 35.0105 13.647C34.8971 13.6753 34.4716 13.8027 34.0461 13.9301L34.0459 13.9301L34.0458 13.9302L34.0456 13.9302C33.6201 14.0576 33.1947 14.1849 33.0813 14.2133C33.0245 13.9301 32.9111 13.7036 32.7408 13.4771C32.4571 12.9675 32.0032 12.5711 31.4925 12.288C30.9818 12.0048 30.4144 11.8916 29.8469 11.8916C29.8034 11.7613 29.3265 10.8325 29.055 10.3039C28.9724 10.143 28.9088 10.0191 28.8823 9.96626C29.2228 9.73976 29.4497 9.34337 29.4497 8.94699C29.4497 8.21084 28.8823 7.64458 28.1446 7.64458C27.4637 7.64458 26.8395 8.21084 26.8395 8.94699C26.8395 9.00361 26.8537 9.06024 26.8679 9.11687C26.8821 9.17349 26.8963 9.23012 26.8963 9.28675C26.6693 9.4 24.3428 10.5325 24.1726 10.5892C23.7187 10.0229 23.0378 9.6265 22.3001 9.6265C20.995 9.6265 19.9736 10.6458 19.9736 11.9482C19.9736 13.2506 20.995 14.2699 22.3001 14.2699C23.0945 14.2699 23.8322 13.8169 24.2861 13.1373C24.3372 13.1543 24.5261 13.2223 24.7718 13.3106L24.7718 13.3106L24.7719 13.3107C25.345 13.5168 26.2267 13.8339 26.3856 13.8735C26.2154 14.2133 26.1586 14.553 26.1586 14.9494C26.1586 15.459 26.3289 15.9687 26.6126 16.4217C26.8395 16.8181 27.2367 17.1012 27.6907 17.3843C27.0098 17.7807 26.4991 18.1771 26.1586 18.6867C25.8182 19.1964 25.5912 19.8193 25.5912 20.4988C25.5912 21.0651 25.7614 21.5747 25.9884 22.0843C25.7614 22.1976 24.0024 23.2169 23.8322 23.3301C23.4917 22.7639 22.8675 22.3675 22.1866 22.3675C21.1085 22.3675 20.2573 23.2169 20.2573 24.2928C20.2573 25.3687 21.1085 26.2181 22.1866 26.2181C22.5838 26.2181 22.981 26.0482 23.3215 25.8217C23.4917 25.9349 24.5131 26.7277 24.6266 26.841C24.5698 26.9542 24.5698 27.1241 24.5698 27.2373C24.5698 28.0301 25.2507 28.7096 26.0451 28.7096C26.8963 28.7096 27.5205 28.0301 27.5205 27.2373C27.5205 27.1029 27.4849 27.004 27.442 26.8843L27.442 26.8843L27.4419 26.8842C27.4306 26.8527 27.4188 26.8197 27.407 26.7843C27.4782 26.7132 27.6836 26.5975 27.8687 26.4932L27.8688 26.4932C27.9786 26.4313 28.0813 26.3735 28.1446 26.3313C28.3149 26.4446 28.4851 26.5578 28.7121 26.5578C29.0525 26.5578 29.3362 26.388 29.5065 26.1048C29.5855 26.1048 30.3245 26.1658 31.1165 26.2312L31.1166 26.2312L31.1166 26.2312C32.0312 26.3067 33.0164 26.388 33.138 26.388C33.1948 28.0301 34.5566 29.3325 36.2022 29.3325C37.9044 29.3325 39.2663 27.9735 39.2663 26.2747C39.1528 24.6325 37.791 23.2735 36.0887 23.2735ZM35.9181 12.9108C36.2586 12.9108 36.5423 13.194 36.5423 13.5337C36.5423 13.8735 36.2586 14.1566 35.9181 14.1566C35.5777 14.1566 35.2939 13.8735 35.2939 13.5337C35.2939 13.194 35.5777 12.9108 35.9181 12.9108ZM34.1027 26.3313C34.1027 27.4072 35.0105 28.3133 36.0887 28.3133C37.1668 28.3133 38.0747 27.4639 38.0747 26.3313C38.0747 25.2554 37.1668 24.3494 36.0887 24.3494C35.0105 24.3494 34.1027 25.2554 34.1027 26.3313ZM25.9888 28.1434C25.5349 28.1434 25.1377 27.747 25.1377 27.294C25.1377 26.841 25.5349 26.4446 25.9888 26.4446C26.4428 26.4446 26.84 26.841 26.84 27.294C26.84 27.8036 26.4428 28.1434 25.9888 28.1434ZM23.2647 24.3494C23.2647 23.7265 22.754 23.2169 22.1299 23.2169C21.5057 23.2169 20.995 23.7265 20.995 24.3494C20.995 24.9723 21.5057 25.4819 22.1299 25.4819C22.754 25.4819 23.2647 24.9723 23.2647 24.3494ZM28.0315 8.26747C28.4287 8.26747 28.7124 8.5506 28.7124 8.94699C28.7124 9.34337 28.4287 9.62651 28.0315 9.62651C27.691 9.62651 27.3506 9.34337 27.3506 8.94699C27.3506 8.60723 27.691 8.26747 28.0315 8.26747ZM27.2694 26.1927L27.2695 26.1927C27.4513 26.0673 27.6683 25.9178 27.7474 25.8783C27.7474 25.8594 27.7411 25.8343 27.7348 25.8091C27.7222 25.7588 27.7096 25.7084 27.7474 25.7084C27.7474 25.312 28.0311 24.9723 28.3716 24.859C28.3716 24.8081 28.3831 24.6771 28.3957 24.5329L28.3957 24.5329L28.3957 24.5329C28.4112 24.3562 28.4284 24.1598 28.4284 24.0663C27.6339 23.8964 27.0098 23.5566 26.5558 23.047C26.5558 23.047 26.3856 22.7639 26.2721 22.6506C26.0451 22.7639 24.1726 23.8398 24.0024 23.953C24.0024 24.0465 24.0196 24.1229 24.035 24.1915C24.0477 24.2476 24.0591 24.2985 24.0591 24.3494C24.0591 24.7458 23.9456 25.0855 23.7187 25.4253C23.8889 25.5386 24.6833 26.1614 24.8535 26.3313C25.1373 26.0482 25.5345 25.8217 25.9884 25.8217C26.3856 25.8217 26.7828 26.0482 27.0665 26.3313C27.118 26.2971 27.1903 26.2472 27.2692 26.1928L27.2694 26.1927ZM27.8042 18.9133C28.3149 18.4036 28.939 18.1771 29.6767 18.1771C30.3576 18.1771 30.9818 18.4036 31.4357 18.8566C31.9464 19.3096 32.1734 19.8759 32.1734 20.4422C32.1734 21.0651 31.9464 21.5747 31.4925 22.0277C31.0385 22.4807 30.4144 22.7072 29.62 22.7072C29.1093 22.7072 28.6553 22.594 28.2581 22.4241C27.8609 22.2542 27.5772 21.9711 27.407 21.6313C27.18 21.2916 27.0665 20.8952 27.0665 20.5554C27.0665 19.9892 27.2935 19.4229 27.8042 18.9133ZM29.6767 16.8181C30.0172 16.8181 30.3009 16.7614 30.6413 16.5916C30.925 16.4217 31.152 16.1952 31.3222 15.8554C31.5492 15.5157 31.606 15.2325 31.606 14.9494C31.606 14.553 31.4357 14.1566 31.0953 13.8169C30.7548 13.4771 30.2441 13.3072 29.62 13.3072C29.0525 13.3072 28.5986 13.4771 28.2014 13.8169C27.8042 14.1566 27.6339 14.553 27.6339 15.006C27.6339 15.459 27.8609 15.8554 28.2581 16.2518C28.6553 16.6482 29.1093 16.8181 29.6767 16.8181ZM29.5068 25.5385C29.45 25.2554 29.2798 25.0289 28.9961 24.859C28.9961 24.6891 29.0528 24.2928 29.1096 24.1229C29.2798 24.1229 29.6203 24.1795 29.6203 24.1795C30.8686 24.1795 31.8332 23.7831 32.5709 23.1036C32.656 23.1885 32.9256 23.4717 33.1951 23.7548C33.4646 24.0379 33.7341 24.3211 33.8193 24.406C33.4788 24.8024 33.2518 25.312 33.1383 25.8217C32.9886 25.8217 32.0483 25.7428 31.1604 25.6683C30.3662 25.6017 29.6139 25.5385 29.5068 25.5385ZM24.4853 12.5156L24.4853 12.5156L24.4853 12.5156C24.4758 12.5517 24.4661 12.5889 24.4563 12.6277C24.5893 12.6941 25.248 12.9353 25.7936 13.1351L25.7937 13.1351C26.1795 13.2764 26.5088 13.397 26.5558 13.4205C26.8963 12.9108 27.2935 12.5711 27.8042 12.288C28.2014 12.0614 28.5986 11.9482 28.9958 11.8916C28.9381 11.7476 28.7338 11.3549 28.5394 10.9813L28.5393 10.9812L28.5393 10.9811C28.3513 10.6198 28.1725 10.2763 28.1446 10.1928H27.9744C27.6907 10.1928 27.3502 10.0229 27.1233 9.79638C26.9881 9.88631 25.4936 10.6188 24.77 10.9735C24.5822 11.0655 24.4464 11.1321 24.3996 11.1554C24.5131 11.4386 24.5698 11.7217 24.5698 12.0048C24.5698 12.1925 24.5309 12.3412 24.4853 12.5156ZM28.0879 25.7084C28.0879 25.4253 28.3149 25.1422 28.6553 25.1422C28.8823 25.1422 29.0525 25.2554 29.166 25.4819V25.5386C29.166 25.5669 29.1802 25.5952 29.1944 25.6235C29.2086 25.6518 29.2228 25.6801 29.2228 25.7084C29.2228 25.9916 28.9958 26.2747 28.6553 26.2747C28.3149 26.2747 28.0879 26.0482 28.0879 25.7084ZM20.8252 12.0048C20.8252 12.7976 21.4494 13.4205 22.2438 13.4205C23.0382 13.4205 23.6623 12.7976 23.6623 12.0048C23.6623 11.212 23.0382 10.5892 22.2438 10.5892C21.4494 10.5892 20.8252 11.212 20.8252 12.0048Z" fill="black"/>
<path fill-rule="evenodd" clip-rule="evenodd" d="M24.1727 33.5229C24.1727 33.5229 19.1225 26.0482 19.0658 25.9349V17.5542C19.236 17.5542 19.5197 17.4976 19.7467 17.2711C20.0304 16.988 20.1439 16.5916 20.1439 16.1386C20.1439 15.1193 19.3495 14.8928 19.1225 14.8928H15.6612C15.6612 14.8928 15.1505 14.8361 14.8101 15.1759C14.5831 15.4024 14.4696 15.7422 14.4696 16.1386C14.4696 17.3277 15.037 17.5542 15.7747 17.5542V25.9349C15.7179 25.9916 10.4976 33.4663 10.4976 33.4663C10.4976 33.4663 10.2139 33.9759 10.2139 34.4855C10.2139 34.5988 10.2139 34.7121 10.2706 34.8253C10.3841 35.2217 10.6111 35.5048 11.065 35.7313H23.662C23.662 35.7313 24.2861 35.5048 24.4564 34.9386C24.5131 34.8253 24.5131 34.6554 24.5131 34.4855C24.5699 34.259 24.3996 33.9193 24.1727 33.5229ZM11.2923 35.0518C11.2923 35.0518 10.7249 34.7687 11.2356 33.9759C11.7463 33.2964 16.5695 26.2747 16.5695 26.2747V17.2145L17.7043 16.8181H15.4913C15.4913 16.8181 15.3211 16.7614 15.3211 16.1952C15.3211 15.7306 15.604 15.7366 15.826 15.7413C15.8475 15.7417 15.8685 15.7422 15.8885 15.7422H19.1229C19.1229 15.7422 19.4633 15.6855 19.4633 16.2518C19.4633 16.8181 19.2364 16.8747 18.8392 16.8747H18.3852V26.2747L23.5488 33.9759C23.5488 33.9759 24.1163 34.712 23.4921 35.0518H11.2923ZM11.7459 34.3723L15.7747 28.7663H18.9523L22.6973 34.3157H14.1859L14.3561 34.0325L17.023 30.0121H15.9449L12.824 34.3723H11.7459Z" fill="black"/>
<path fill-rule="evenodd" clip-rule="evenodd" d="M155.249 10.8723C153.603 10.8723 152.241 12.1747 152.241 13.7602C152.241 15.006 153.206 16.2518 154.852 16.3084C156.27 16.3084 157.859 15.1759 157.859 13.3639C157.859 12.1747 156.894 10.8723 155.249 10.8723ZM109.854 26.0482C109.344 26.2747 107.925 26.6711 106.79 26.6711C104.577 26.6711 103.272 25.5385 103.272 23.5566C103.272 21.1783 104.691 17.5542 107.868 16.9313C107.755 17.6108 107.585 18.7434 107.585 18.9132C107.982 18.9132 109.344 18.9132 111.727 18.0072C111.784 17.8373 112.862 12.8542 112.862 12.5711C111.897 12.3446 110.024 12.0048 108.606 12.1747C102.137 12.5711 98.2219 18.8 98.2219 24.5759C98.2219 26.9542 99.1298 30.9747 105.258 30.9747C105.313 30.9747 110.324 30.7088 113.164 27.5998C112.853 29.2315 112.599 30.5659 112.578 30.6916H117.174C117.231 30.5217 117.685 28.0867 117.685 28.0867C118.309 24.859 119.274 22.8771 120.579 22.0843C121.325 21.6588 122.572 21.583 123.567 21.81C122.971 23.0773 122.621 24.6052 122.621 26.3879C122.621 29.6157 124.267 31.2012 127.671 31.2012C129.921 31.2012 132.785 30.589 135.764 29.4751C136.735 30.5696 138.482 31.1446 140.893 31.1446C144.694 31.1446 148.61 28.7663 148.61 24.7458C148.61 23.4434 148.042 22.3675 146.851 21.5181L146.681 21.4048L146.851 21.2916C147.881 20.6687 148.653 19.8745 149.14 18.975C149.07 19.6639 148.983 20.4507 148.95 20.612C149.745 20.5554 150.596 20.612 151.277 20.7253H151.39C151.39 20.7253 149.574 30.4084 149.518 30.7482C152.128 30.8048 155.135 30.7482 157.235 30.5217C157.268 30.3873 157.442 29.4354 157.589 28.6243C158.312 30.2882 160.005 31.0879 162.796 31.0879C166.881 31.0879 171.137 27.747 171.137 22.141C171.137 21.5939 171.083 21.0924 170.976 20.6368C171.718 20.5832 172.746 20.6826 173.293 20.7819H173.463C173.463 20.7819 171.591 30.4651 171.534 30.8048H176.13C176.187 30.5783 176.868 26.8976 176.868 26.8976C177.379 24.1795 179.365 21.2349 180.329 21.2349C180.443 21.2349 180.556 21.2916 180.67 21.4048C180.726 21.5181 180.783 21.6879 180.783 21.9145C180.783 22.0489 180.748 22.2543 180.705 22.5025C180.693 22.5679 180.681 22.6363 180.67 22.7072C180.67 22.7072 179.194 30.4651 179.138 30.8048C181.918 30.8614 183.961 30.8048 185.947 30.5783C185.987 30.457 186.23 29.1517 186.387 28.3122L186.387 28.3121L186.387 28.3114C186.449 27.9757 186.498 27.7146 186.514 27.6337C185.833 27.5771 185.096 27.4639 184.528 27.3506L184.415 27.294L185.55 21.4048L185.569 21.2537C185.618 20.8625 185.663 20.5107 185.663 20.159C185.663 19.3096 185.436 18.6301 185.039 18.1205C184.528 17.4976 183.734 17.2145 182.656 17.2145C180.726 17.2145 178.797 18.2337 177.492 20.159L177.549 20.0458C177.946 19.0831 178.173 18.2337 178.286 17.6675C176.017 17.6108 173.236 17.6675 171.137 17.894C171.102 17.9969 170.964 18.8895 170.847 19.6402L170.847 19.6414L170.847 19.642L170.788 20.0223C170.09 18.1961 168.344 17.2711 165.576 17.2711C161.377 17.2711 157.178 20.3855 157.178 26.3313C157.178 26.7329 157.205 27.1083 157.26 27.4576C156.437 27.4401 155.413 27.3855 154.908 27.294H154.738C154.738 27.294 156.554 17.894 156.611 17.5542C153.899 17.4481 151.386 17.5906 149.586 17.8419C149.691 17.4372 149.745 17.0188 149.745 16.5916C149.745 14.0434 147.645 12.5711 144.014 12.5711C139.985 12.5711 136.75 15.3458 136.75 18.7434C136.75 19.9325 137.204 20.8952 138.169 21.6879L138.339 21.8012L138.169 21.9145C136.653 22.8013 135.137 23.9764 134.908 26.3253C132.006 27.5992 130.232 27.8602 129.033 27.8602C127.728 27.8602 127.161 27.4072 127.161 26.3879V25.9349H127.274C130.281 25.8783 135.332 25.1422 135.332 20.7819C135.332 19.4795 134.707 17.2711 130.508 17.2711C127.963 17.2711 125.393 18.5875 123.907 21.158C124.182 19.8584 124.734 17.2067 124.778 16.9879C121.997 16.5349 119.784 18.5169 118.536 20.6687V20.0458C118.82 19.1964 119.103 18.347 119.274 17.4976C117.061 17.441 114.848 17.4976 113.429 17.7241C113.397 17.8198 113.239 18.688 113.097 19.4686C112.987 20.0738 112.886 20.6264 112.862 20.7253C112.951 20.755 113.072 20.7691 113.199 20.784C113.314 20.7975 113.435 20.8116 113.543 20.8385L114.394 20.9518V21.1783L114.191 22.2381C112.952 24.1836 110.737 25.6853 109.854 26.0482ZM170.788 20.0223C170.862 20.2169 170.925 20.4217 170.976 20.6368C170.872 20.6443 170.773 20.6548 170.683 20.6687C170.699 20.5876 170.739 20.3393 170.788 20.0223ZM157.26 27.4576C157.455 27.4618 157.639 27.4639 157.802 27.4639C157.781 27.5681 157.706 27.9797 157.617 28.4693L157.617 28.4703L157.589 28.6243C157.437 28.2739 157.328 27.8852 157.26 27.4576ZM149.586 17.8419C149.485 18.2338 149.335 18.613 149.14 18.975C149.192 18.4553 149.234 17.9914 149.234 17.894C149.348 17.8762 149.466 17.8588 149.586 17.8419ZM134.908 26.3253C135.028 26.2724 135.15 26.2178 135.275 26.1614C135.332 26.4446 135.842 29.2193 135.842 29.4458L135.764 29.4751C135.181 28.818 134.878 27.9738 134.878 26.9542C134.878 26.7356 134.888 26.5261 134.908 26.3253ZM123.907 21.158C123.826 21.5408 123.769 21.8063 123.756 21.8578C123.694 21.8406 123.631 21.8247 123.567 21.81C123.673 21.5844 123.786 21.3671 123.907 21.158ZM114.191 22.2381C114.305 22.0583 114.411 21.8748 114.507 21.6879C114.423 22.3621 114.213 23.3427 113.995 24.3603C113.773 25.3942 113.543 26.4664 113.429 27.294C113.343 27.3989 113.255 27.5008 113.164 27.5998C113.517 25.7529 113.944 23.5251 114.191 22.2381ZM141.46 27.4072C140.212 27.4072 139.758 26.7277 139.758 26.1048C139.758 25.1988 140.325 24.5193 141.857 23.7265L141.914 23.6699L141.971 23.7265C142.822 24.1229 143.673 24.6325 143.673 25.4253C143.73 26.6145 142.822 27.4072 141.46 27.4072ZM143.049 19.5361L143.105 19.4795C144.41 18.8 144.978 18.1205 144.978 17.2145C144.978 16.8747 144.864 16.1385 143.559 16.1385C142.311 16.1385 141.573 16.8181 141.573 17.894C141.573 18.6867 142.368 19.1964 142.992 19.4795L143.049 19.5361ZM86.1354 25.8783C89.1427 25.8217 94.1929 25.0855 94.1929 20.7253C94.1929 19.1397 93.3417 17.2144 89.3697 17.2144C85.4544 17.2144 81.4824 20.3289 81.4824 26.3313C81.4824 26.7028 81.5035 27.051 81.5459 27.3763C80.9369 27.3148 80.2581 27.2194 79.7804 27.1241L80.8585 21.4614C81.3125 19.0831 80.6316 17.1578 77.9079 17.1578C75.7517 17.1578 74.3331 18.2904 73.1415 19.9892H73.0847C73.6522 18.7434 74.1629 17.3277 74.4466 15.9687L75.2977 11.2687C72.7443 11.1554 70.4178 11.2687 68.9425 11.4952L68.7196 12.741H54.8702L53.7354 18.6867H56.9697C57.1967 18.1205 57.4237 17.4976 57.5939 16.8747H58.9557L56.9697 27.1807C56.4078 27.2208 55.8459 27.3175 55.3041 27.4107L55.304 27.4108C55.0798 27.4493 54.8591 27.4873 54.6432 27.5205L54.0191 30.6916H63.3817L64.0058 27.5205C63.3817 27.3506 62.5873 27.2373 61.7929 27.1807L63.7789 16.8747H65.1407C65.084 17.4976 65.084 18.1205 65.084 18.6867H67.9211L69.0657 14.8178C69.121 14.8269 69.1778 14.8362 69.2354 14.8456C69.4408 14.879 69.6565 14.9142 69.8504 14.9494L66.843 30.6916H71.6094L72.3471 26.7843C72.9145 24.0096 74.787 21.3482 75.6382 21.3482C75.9786 21.3482 76.0921 21.6879 75.9219 22.6506L74.3898 30.7482C76.8865 30.8048 79.0995 30.8048 81.3125 30.5217L81.7267 28.248C82.2901 30.1475 83.8379 31.0313 86.4758 31.0313C88.3483 31.0313 90.3343 30.6916 92.0934 30.1253V26.7277C90.6748 27.2373 89.2562 27.4638 88.0646 27.4638C86.5893 27.4638 86.0786 27.1241 86.0786 26.2747V25.8217L86.1354 25.8783ZM69.0657 14.8178L69.6802 12.741H68.7196L68.3751 14.6663C68.3751 14.7004 68.6838 14.755 69.0657 14.8178ZM81.7267 28.248C81.6467 27.9781 81.5865 27.6877 81.5459 27.3763C81.6603 27.3879 81.7722 27.3983 81.8799 27.4072L81.7267 28.248ZM88.8598 20.4988C87.7817 20.4988 86.9305 21.3482 86.4766 22.9337V23.1036H86.6468C88.6328 23.1036 89.7677 22.4241 89.7677 21.3482C89.7677 20.7819 89.4272 20.4988 88.8598 20.4988ZM129.884 20.4988C128.863 20.4988 128.012 21.3482 127.558 22.9337L127.501 23.1036H127.671C129.657 23.1036 130.792 22.4241 130.792 21.3482C130.792 20.7819 130.452 20.4988 129.884 20.4988ZM162.001 25.5952C162.001 26.5578 162.455 27.0675 163.363 27.0675C165.519 27.0675 166.314 24.406 166.314 22.7639C166.314 21.6879 165.86 21.2349 164.838 21.2349C162.909 21.2349 162.001 23.8398 162.001 25.5952ZM191.224 21.1217C189.749 21.1217 188.5 22.3675 188.5 23.8398C188.5 25.1988 189.635 26.3313 191.054 26.3879C192.529 26.3879 193.777 25.1422 193.777 23.6699C193.777 22.2542 192.642 21.1217 191.224 21.1217ZM207.112 12.741C207.094 12.8278 207.04 13.1275 206.971 13.5063C206.814 14.3631 206.584 15.6244 206.544 15.7422C205.693 15.912 204.956 16.0253 204.275 16.0253H204.161L202.118 26.841H204.502C204.502 26.841 205.239 25.1422 205.296 24.9723H207.997C207.945 25.3075 207.908 25.6431 207.883 25.9765C207.604 27.0727 207.159 28.8017 206.888 29.852L206.887 29.8556C206.76 30.3505 206.672 30.6939 206.658 30.7482H194.458C194.515 30.4651 195.026 27.9169 195.026 27.747C195.82 27.5771 196.614 27.4639 197.295 27.4639H197.409L199.565 16.0819H199.395L199.306 16.0739C198.706 16.0197 198.052 15.9606 197.295 15.7988C197.324 15.6857 197.451 14.9941 197.578 14.3015L197.579 14.3008L197.579 14.3006L197.579 14.2999L197.579 14.2997L197.579 14.2987C197.707 13.6049 197.834 12.9109 197.863 12.7976C198.033 12.741 206.828 12.741 207.112 12.741ZM207.883 25.9765C207.861 26.286 207.85 26.5937 207.85 26.8976C207.85 29.7289 208.928 31.1446 211.084 31.1446C213.297 31.1446 215.226 29.4458 216.474 27.5771L216.531 27.5205L216.474 27.6904C216.148 28.5044 216.03 30.0468 215.971 30.8217L215.964 30.9181H216.701C216.701 30.9181 218.971 30.8614 220.503 30.6916C222.71 30.4294 223.117 28.1773 223.165 27.8446L222.773 30.8048C224.362 30.9747 225.894 31.0313 227.71 30.9181C233.327 30.5783 236.675 27.0675 236.675 21.5747C236.618 18.6301 235.54 17.2145 233.384 17.2145C231.568 17.2145 229.923 18.1205 228.674 20.0458L228.617 19.9892C229.279 18.5578 229.566 17.1265 229.842 15.7472L229.842 15.747L229.866 15.6289C229.866 15.6289 230.66 11.4952 230.717 11.212C228.22 11.1554 225.894 11.212 223.738 11.4385C223.705 11.5349 223.546 12.3961 223.403 13.1649C223.294 13.7519 223.195 14.2851 223.17 14.3831L223.316 14.3952C223.963 14.4483 224.694 14.5084 225.326 14.6663H225.44L223.113 26.8976H223C222.206 26.9542 220.844 26.9542 220.39 26.8976H220.22C220.22 26.8976 222.035 18.0072 222.092 17.7241C220.503 17.441 218.687 17.2711 216.645 17.2711C211.101 17.2711 208.599 21.0977 207.997 24.9723H208.133C208.119 25.0437 208.022 25.432 207.883 25.9765ZM216.702 21.6879C216.248 23.8964 214.375 27.0675 213.24 27.0675C212.616 27.0675 212.616 26.2747 212.616 25.8783C212.616 23.7831 213.808 20.7819 215.794 20.7819C216.091 20.7819 216.345 20.8251 216.631 20.8737C216.673 20.8808 216.715 20.888 216.758 20.8952L216.872 20.9518L216.702 21.6879ZM227.88 26.7277C230.264 26.2181 231.796 24.5759 231.909 22.4241C231.909 22.0277 231.909 21.2349 231.228 21.2349C230.093 21.2349 228.221 23.953 227.767 26.2181L227.653 26.7843L227.88 26.7277Z" fill="white"/>
</svg>
